<?xml version="1.0" standalone="no"?>
<!DOCTYPE svg PUBLIC "-//W3C//DTD SVG 20010904//EN"
 "http://www.w3.org/TR/2001/REC-SVG-20010904/DTD/svg10.dtd">
<svg version="1.0" xmlns="http://www.w3.org/2000/svg"
 width="1654.000000pt" height="1654.000000pt" viewBox="0 0 1654.000000 1654.000000"
 preserveAspectRatio="xMidYMid meet">

<g transform="translate(0.000000,1654.000000) scale(0.100000,-0.100000)"
fill="#000000" stroke="none">
<path d="M6080 13184 c-19 -2 -91 -8 -160 -14 -451 -37 -949 -153 -1385 -323
-992 -385 -1847 -1098 -2377 -1982 -129 -215 -206 -364 -318 -620 -25 -58 -71
-181 -98 -260 -260 -771 -324 -1489 -202 -2280 52 -342 174 -767 312 -1090
424 -992 1127 -1791 2068 -2350 128 -77 461 -247 469 -240 2 3 -9 15 -25 27
-88 69 -278 245 -409 379 -280 287 -497 569 -702 909 -282 467 -466 930 -593
1485 -98 428 -132 1019 -84 1465 131 1226 690 2304 1609 3109 652 570 1472
970 2330 1136 99 19 198 37 220 40 22 3 72 10 110 16 249 36 884 48 1130 20
356 -40 672 -100 950 -181 99 -29 189 -55 199 -58 51 -14 -22 35 -239 160 -52
30 -377 192 -445 221 -36 16 -80 35 -98 43 -18 8 -70 28 -115 45 -45 17 -109
41 -142 54 -94 36 -385 121 -545 159 -156 37 -384 77 -545 96 -55 6 -131 16
-170 22 -66 9 -668 19 -745 12z"/>
<path d="M9666 10849 c-57 -51 -76 -85 -76 -141 0 -34 25 -93 134 -313 74
-148 157 -317 184 -375 70 -145 106 -196 170 -238 l55 -37 1453 -5 c799 -3
1455 -8 1459 -11 6 -7 -31 -126 -46 -144 -4 -6 -17 -37 -29 -70 -12 -33 -25
-69 -30 -80 -4 -11 -16 -47 -25 -80 -10 -33 -24 -78 -32 -100 -8 -22 -21 -60
-29 -85 -8 -25 -19 -54 -23 -65 -5 -11 -17 -47 -26 -80 -10 -33 -26 -82 -36
-109 -11 -27 -19 -55 -19 -62 0 -8 -4 -22 -9 -32 -12 -24 -26 -61 -41 -107 -7
-22 -22 -65 -35 -95 -30 -72 -57 -146 -89 -250 -15 -47 -39 -110 -53 -140 -14
-30 -47 -122 -74 -205 -27 -82 -54 -159 -58 -170 -5 -11 -30 -87 -57 -170 -26
-82 -51 -157 -55 -165 -4 -8 -28 -80 -53 -160 -26 -80 -51 -154 -55 -165 -5
-11 -24 -66 -41 -122 -17 -55 -40 -118 -51 -138 -11 -20 -38 -94 -60 -163 -23
-70 -45 -136 -50 -147 -18 -43 -49 -149 -49 -170 0 -12 -11 -44 -25 -71 -14
-27 -25 -55 -25 -62 0 -7 -4 -20 -10 -30 -5 -9 -30 -80 -56 -157 -25 -77 -54
-156 -63 -175 -21 -40 -48 -116 -65 -179 -7 -25 -17 -46 -24 -49 -6 -2 -21 18
-33 45 -12 26 -26 56 -30 65 -5 10 -9 24 -9 32 0 7 -9 35 -19 62 -10 27 -31
90 -47 139 -15 50 -31 94 -36 100 -4 5 -8 18 -8 30 0 11 -9 35 -20 53 -11 18
-38 88 -61 155 -22 67 -46 131 -54 143 -7 12 -25 54 -39 95 -13 41 -33 92 -44
114 -11 22 -25 58 -32 80 -41 128 -74 208 -99 238 -17 20 -27 36 -65 108 -15
30 -44 75 -62 102 -19 26 -34 50 -34 53 0 15 -120 151 -211 239 -90 87 -155
137 -234 181 -18 10 -21 25 -25 125 -3 63 -11 124 -18 136 -7 12 -12 41 -12
64 0 41 -13 95 -31 131 -5 10 -9 30 -9 45 0 16 -7 47 -15 70 -14 40 -35 126
-54 218 -4 22 -15 58 -24 80 -8 22 -27 72 -42 110 -37 99 -250 529 -269 544
-9 8 -16 17 -16 21 0 12 -218 338 -281 420 -76 99 -349 373 -445 447 -227 174
-284 215 -373 270 -280 175 -659 329 -966 393 -33 7 -73 16 -89 21 -16 5 -618
9 -1383 9 l-1353 0 -41 -25 c-22 -14 -49 -40 -59 -58 -20 -32 -20 -70 -20
-3043 l0 -3012 40 -36 c22 -19 50 -38 62 -41 41 -10 2859 2 2943 13 235 29
330 53 545 140 222 89 438 221 650 398 98 81 393 383 449 459 25 33 56 76 71
95 69 93 159 245 250 422 25 49 49 86 55 85 5 -2 17 -27 27 -56 10 -29 43
-112 72 -184 30 -73 65 -163 79 -202 13 -38 33 -90 45 -115 51 -114 156 -375
213 -535 22 -60 74 -196 115 -300 41 -105 74 -194 74 -198 0 -8 65 -188 80
-222 5 -11 16 -40 24 -65 61 -186 134 -364 173 -422 13 -20 42 -48 64 -62 l39
-26 545 0 c457 0 551 2 574 14 36 19 84 73 98 112 6 16 40 103 76 194 36 91
95 244 132 340 37 96 70 184 75 195 5 11 20 54 35 95 15 41 72 190 126 330 55
140 109 280 120 310 12 30 25 64 29 75 8 19 116 302 205 535 24 63 55 147 69
185 31 86 63 171 111 295 20 52 45 120 55 150 10 30 39 111 65 180 26 69 55
150 65 180 10 30 30 87 45 125 14 39 39 106 54 150 16 44 50 139 76 210 25 72
50 141 55 155 35 101 146 417 183 520 25 69 55 152 67 185 25 72 59 163 70
190 11 25 64 177 96 275 14 41 29 84 34 95 5 11 26 72 46 135 20 63 40 124 44
135 5 11 25 67 45 125 20 58 41 116 47 130 6 14 14 34 18 45 5 11 17 40 28 65
11 25 23 56 27 70 4 14 21 53 36 88 l29 63 0 483 0 483 -22 29 c-13 16 -31 37
-40 46 -17 17 -137 18 -2342 18 l-2323 0 -47 -41z m-1780 -1137 c5 -5 36 -19
69 -32 211 -83 524 -294 720 -486 277 -271 526 -682 584 -962 17 -80 14 -119
-10 -143 -27 -27 -58 -20 -157 36 -74 42 -200 92 -252 102 -14 2 -43 8 -65 14
-125 30 -205 32 -1525 38 l-1345 6 -3 705 c-1 388 0 711 3 718 3 9 210 12 988
12 541 0 987 -4 993 -8z m611 -2618 c77 -15 94 -20 168 -55 54 -25 235 -131
274 -161 39 -30 71 -80 71 -110 0 -52 -120 -253 -247 -413 -168 -213 -309
-328 -538 -440 -129 -63 -214 -93 -270 -97 -22 -1 -484 -1 -1027 0 l-988 2 0
645 0 645 1133 3 c1240 3 1319 2 1424 -19z"/>
</g>
</svg>
